<?xml version="1.0" ?><svg viewBox="0 0 24 24" xmlns="http://www.w3.org/2000/svg"><defs><style>.cls-1{fill:none;}</style></defs><g id="Artwork"><path d="M15.92,5.71l-.36-.45L13.15,2.2,13,2.05,12.83,2l-.13,0h-.28l-.13,0a.61.61,0,0,0-.14.07L12,2.2,9.56,5.26l-.36.45A4,4,0,0,0,8.51,8a4.24,4.24,0,0,0,0,.51,4.05,4.05,0,0,0,8,0,4.24,4.24,0,0,0,0-.51A4,4,0,0,0,15.92,5.71Zm-3.36,4.81A2.55,2.55,0,0,1,10,8a2.52,2.52,0,0,1,.43-1.41h0a1.76,1.76,0,0,1,.24-.3l.07-.08,1.77-2.25,0,0,0,0,1.77,2.25.07.08a1.76,1.76,0,0,1,.24.3h0A2.52,2.52,0,0,1,15.11,8,2.55,2.55,0,0,1,12.56,10.52Z"/><path d="M20.87,15.76l-.36-.45L18.1,12.25l-.18-.15L17.78,12l-.13,0h-.28l-.13,0-.14.07-.18.15-2.41,3.06-.36.45A4,4,0,0,0,13.46,18a4.24,4.24,0,0,0,0,.51,4.05,4.05,0,0,0,8,0,4.24,4.24,0,0,0,0-.51A4,4,0,0,0,20.87,15.76Zm-3.36,4.81A2.55,2.55,0,0,1,15,18a2.52,2.52,0,0,1,.43-1.41h0a1.76,1.76,0,0,1,.24-.3l.07-.08L17.48,14l0,0,0,0,1.77,2.25.07.08a1.76,1.76,0,0,1,.24.3h0A2.52,2.52,0,0,1,20.06,18,2.55,2.55,0,0,1,17.51,20.57Z"/><path d="M9.85,14.74l-.36-.45L7.08,11.23l-.18-.15L6.76,11l-.13,0H6.35l-.13,0-.14.07-.18.15L3.49,14.29l-.36.45A4,4,0,0,0,2.44,17a4.24,4.24,0,0,0,0,.51,4.05,4.05,0,0,0,8,0,4.24,4.24,0,0,0,0-.51A4,4,0,0,0,9.85,14.74ZM6.49,19.55A2.55,2.55,0,0,1,3.94,17a2.52,2.52,0,0,1,.43-1.41h0a1.76,1.76,0,0,1,.24-.3l.07-.08L6.46,13l0,0,0,0L8.29,15.2l.07.08a1.76,1.76,0,0,1,.24.3h0A2.52,2.52,0,0,1,9,17,2.55,2.55,0,0,1,6.49,19.55Z"/><rect class="cls-1" height="24" width="24"/></g></svg>