<?xml version="1.0" encoding="utf-8"?>
<!-- Generator: Adobe Illustrator 19.2.0, SVG Export Plug-In . SVG Version: 6.00 Build 0)  -->
<svg version="1.1" id="droplet" xmlns="http://www.w3.org/2000/svg" xmlns:xlink="http://www.w3.org/1999/xlink" x="0px" y="0px"
	 viewBox="0 0 212.1017 223.9493" enable-background="new 0 0 212.1017 223.9493" xml:space="preserve">
<g>
	<path fill="none" d="M140.1017,50.301c-12.7969,13.6912-64,70.4256-64,101.6483c0,35.2893,28.7107,64,64,64
		c35.2891,0,64-28.7107,64-64C204.1017,120.711,152.9024,63.9886,140.1017,50.301z M140.1017,199.9493c-26.4689,0-48-21.5331-48-48
		c0-2.2087,1.7891-4,4-4c2.2107,0,4,1.7913,4,4c0,22.0569,17.9451,40,40,40c2.2107,0,4,1.7913,4,4
		C144.1017,198.1582,142.3124,199.9493,140.1017,199.9493z"/>
	<path fill="none" d="M40.1017,9.7678C29.0392,21.7286,8,47.301,8,61.0022c0,17.6991,14.4024,32.0996,32.1017,32.0996
		c17.6991,0,32.1015-14.4005,32.1015-32.0996C72.2032,47.2874,51.168,21.7246,40.1017,9.7678z M36.1017,83.9493
		c-11.0273,0-20-8.9727-20-20c0-2.2087,1.7891-4,4-4c2.2107,0,4,1.7913,4,4c0,6.6173,5.3827,12,12,12c2.2107,0,4,1.7913,4,4
		C40.1017,82.1582,38.3124,83.9493,36.1017,83.9493z"/>
	<path d="M142.9688,41.6954c-1.508-1.5468-4.2264-1.5468-5.7344,0c-2.8244,2.9024-69.1327,71.5196-69.1327,110.2539
		c0,39.7013,32.3007,72,72,72c39.6991,0,72-32.2987,72-72C212.1017,113.215,145.7932,44.5978,142.9688,41.6954z M140.1017,215.9493
		c-35.2893,0-64-28.7107-64-64c0-31.2227,51.2031-87.9571,64-101.6483c12.8007,13.6876,64,70.41,64,101.6483
		C204.1017,187.2386,175.3908,215.9493,140.1017,215.9493z"/>
	<path d="M80.2032,61.0022c0-20.9572-33.422-55.924-37.2344-59.842c-1.508-1.5469-4.2264-1.5469-5.7344,0
		C33.422,5.0782,0,40.045,0,61.0022c0,22.1111,17.9884,40.0996,40.1017,40.0996C62.2148,101.1018,80.2032,83.1133,80.2032,61.0022z
		 M40.1017,93.1018C22.4024,93.1018,8,78.7013,8,61.0022C8,47.301,29.0392,21.7286,40.1017,9.7678
		C51.168,21.7246,72.2032,47.2874,72.2032,61.0022C72.2032,78.7013,57.8008,93.1018,40.1017,93.1018z"/>
	<path d="M36.1017,75.9493c-6.6173,0-12-5.3827-12-12c0-2.2087-1.7893-4-4-4c-2.2109,0-4,1.7913-4,4c0,11.0273,8.9727,20,20,20
		c2.2107,0,4-1.7911,4-4C40.1017,77.7406,38.3124,75.9493,36.1017,75.9493z"/>
	<path d="M140.1017,191.9493c-22.0549,0-40-17.9431-40-40c0-2.2087-1.7893-4-4-4c-2.2109,0-4,1.7913-4,4c0,26.4669,21.5311,48,48,48
		c2.2107,0,4-1.7911,4-4C144.1017,193.7406,142.3124,191.9493,140.1017,191.9493z"/>
</g>
</svg>
