<?xml version="1.0" encoding="iso-8859-1"?>
<!-- Generator: Adobe Illustrator 16.0.0, SVG Export Plug-In . SVG Version: 6.00 Build 0)  -->
<!DOCTYPE svg PUBLIC "-//W3C//DTD SVG 1.1//EN" "http://www.w3.org/Graphics/SVG/1.1/DTD/svg11.dtd">
<svg version="1.1" id="Capa_1" xmlns="http://www.w3.org/2000/svg" xmlns:xlink="http://www.w3.org/1999/xlink" x="0px" y="0px"
	 width="516.301px" height="516.301px" viewBox="0 0 516.301 516.301" style="enable-background:new 0 0 516.301 516.301;"
	 xml:space="preserve">
<g>
	<g>
		<path d="M124.4,363.3c0,0-47.8,45.9-47.8,74.602c0,21,15.3,40.199,47.8,40.199s47.8-21,47.8-40.199
			C172.2,409.2,124.4,363.3,124.4,363.3z M124.4,459.001c-15.3,0-28.7-5.701-28.7-23c0-13.4,28.7-44,28.7-44s28.7,30.6,28.7,44
			C153.1,451.3,139.7,459.001,124.4,459.001z"/>
		<path d="M392.101,363.3c0,0-47.801,45.9-47.801,74.602c0,21,15.301,40.199,47.801,40.199s47.8-21,47.8-40.199
			C439.9,409.2,392.101,363.3,392.101,363.3z M392.101,459.001c-15.301,0-28.7-5.701-28.7-23c0-13.4,28.7-44,28.7-44
			s28.699,30.6,28.699,44C420.8,451.3,407.4,459.001,392.101,459.001z"/>
		<path d="M459.101,160.601c0-57.4-47.801-103.3-105.2-103.3c-21,0-38.2,5.7-55.5,15.3c-24.9-32.5-63.1-53.5-107.1-53.5
			c-74.6,0-133.9,59.3-133.9,133.9c0,1.9,0,5.7,0,7.6c-34.4,15.3-57.4,47.8-57.4,88c0,53.5,42.1,95.599,95.6,95.599h325.1
			c53.5,0,95.6-42.1,95.6-95.599C516.5,208.401,493.5,175.901,459.101,160.601z M420.8,325.101H95.7c-42.1,0-76.5-34.4-76.5-76.5
			c0-36.301,24.9-66.9,59.3-74.601c-1.9-7.7-1.9-13.4-1.9-21c0-63.1,51.6-114.8,114.8-114.8c44,0,84.1,24.9,103.3,63.1
			C310,86,331,76.401,354,76.401c47.8,0,86.101,38.2,86.101,86.1c0,3.8,0,7.6,0,11.5c32.5,7.6,57.399,38.2,57.399,74.601
			C497.3,290.7,462.9,325.101,420.8,325.101z"/>
		<path d="M258.3,382.401c0,0-47.8,45.898-47.8,74.6c0,21,15.3,40.199,47.8,40.199c32.5,0,47.801-21,47.801-40.199
			C306.101,428.3,258.3,382.401,258.3,382.401z M258.3,478.101c-15.3,0-28.7-5.699-28.7-23c0-13.4,28.7-44,28.7-44
			s28.7,30.6,28.7,44C286.9,470.401,273.601,478.101,258.3,478.101z"/>
	</g>
</g>
<g>
</g>
<g>
</g>
<g>
</g>
<g>
</g>
<g>
</g>
<g>
</g>
<g>
</g>
<g>
</g>
<g>
</g>
<g>
</g>
<g>
</g>
<g>
</g>
<g>
</g>
<g>
</g>
<g>
</g>
</svg>
