<?xml version="1.0" encoding="iso-8859-1"?>
<!-- Generator: Adobe Illustrator 16.0.0, SVG Export Plug-In . SVG Version: 6.00 Build 0)  -->
<!DOCTYPE svg PUBLIC "-//W3C//DTD SVG 1.1//EN" "http://www.w3.org/Graphics/SVG/1.1/DTD/svg11.dtd">
<svg version="1.1" id="Capa_1" xmlns="http://www.w3.org/2000/svg" xmlns:xlink="http://www.w3.org/1999/xlink" x="0px" y="0px"
	 width="516.4px" height="516.4px" viewBox="0 0 516.4 516.4" style="enable-background:new 0 0 516.4 516.4;" xml:space="preserve"
	>
<g>
	<g>
		<path d="M382.5,306.101H114.7v19.1h267.8c11.5,0,19.1,7.6,19.1,19.1S394,363.4,382.5,363.4s-19.1-7.601-19.1-19.101h-19.1
			c0,21,17.199,38.2,38.199,38.2s38.199-17.2,38.199-38.2S403.5,306.101,382.5,306.101z"/>
		<path d="M344.199,191.3c0-32.5-24.898-57.4-57.398-57.4c-32.5,0-57.401,24.9-57.401,57.4h19.2c0-21,17.201-38.2,38.201-38.2
			S325,170.3,325,191.3s-17.199,38.2-38.199,38.2H57.4v19.2h229.5C319.4,248.7,344.199,223.8,344.199,191.3z"/>
		<path d="M439.801,133.9c-42.102,0-76.5,34.4-76.5,76.5h19.1c0-32.5,24.9-57.4,57.4-57.4s57.398,24.9,57.398,57.4
			S472.301,267.8,439.801,267.8H0V286.9h439.9c42.1,0,76.5-34.4,76.5-76.5C516.4,168.3,481.9,133.9,439.801,133.9z"/>
	</g>
</g>
<g>
</g>
<g>
</g>
<g>
</g>
<g>
</g>
<g>
</g>
<g>
</g>
<g>
</g>
<g>
</g>
<g>
</g>
<g>
</g>
<g>
</g>
<g>
</g>
<g>
</g>
<g>
</g>
<g>
</g>
</svg>
